<svg width="201" height="44" viewBox="0 0 201 44" fill="none" xmlns="http://www.w3.org/2000/svg">
<path fill-rule="evenodd" clip-rule="evenodd" d="M31.68 19.7133V9.37333C31.6976 8.55834 31.6373 7.74353 31.5 6.94C31.4203 6.42304 31.1605 5.95084 30.7667 5.60667C30.3448 5.27488 29.8295 5.08369 29.2933 5.06C28.6267 4.99333 27.8267 4.93999 26.8133 4.90666V3C27.48 3.03333 28.5 3.05999 29.8533 3.07332C30.7486 3.08214 31.673 3.07929 32.6267 3.07635C33.1146 3.07485 33.6101 3.07332 34.1133 3.07332H38.2666C39.5866 3.07332 40.5466 3.03333 41.1533 3V4.94C40.1066 4.98 39.26 5.03999 38.62 5.11999C38.0823 5.16485 37.5709 5.37174 37.1533 5.71334C36.7562 6.05213 36.5014 6.52827 36.44 7.04667C36.3274 7.83703 36.2784 8.63513 36.2933 9.43333V33.92C36.276 34.8122 36.334 35.7042 36.4667 36.5867C36.5291 37.1434 36.7619 37.6672 37.1333 38.0867C37.5465 38.4726 38.0673 38.7237 38.6266 38.8066C39.4559 38.9335 40.2945 38.9893 41.1333 38.9733V40.8C40.5266 40.7667 39.5666 40.74 38.2467 40.7266C37.3756 40.7178 36.4697 40.7207 35.527 40.7236H35.5261H35.526H35.5258H35.5257H35.5255C35.0402 40.7251 34.5451 40.7266 34.04 40.7266H29.8333C28.48 40.7266 27.4667 40.7667 26.7933 40.8V38.94C27.6423 38.9568 28.4908 38.8898 29.3267 38.74C29.8926 38.6489 30.4103 38.3665 30.7933 37.94C31.1564 37.5024 31.3876 36.9706 31.46 36.4066C31.5939 35.5646 31.6541 34.7125 31.64 33.86V22.32H9.48V33.8333C9.46653 34.7247 9.51778 35.616 9.63333 36.5C9.68587 37.0613 9.91991 37.5902 10.3 38.0067C10.6685 38.4153 11.1686 38.6818 11.7133 38.76C12.567 38.9106 13.4333 38.9776 14.3 38.96V40.82H11.3133H7.15333H2.96667H2.9661C1.63305 40.82 0.646574 40.82 0 40.8733V39.0133C0.83345 39.0286 1.66638 38.9616 2.48667 38.8133C3.04404 38.727 3.55854 38.4628 3.95333 38.06C4.35342 37.6409 4.6122 37.107 4.69333 36.5333C4.82244 35.6773 4.88042 34.8122 4.86667 33.9467V9.61334C4.88206 8.78982 4.82406 7.96656 4.69333 7.15334C4.61295 6.63508 4.35061 6.16239 3.95333 5.82001C3.5488 5.45117 3.03252 5.22823 2.48667 5.18666C1.82 5.10666 1.01333 5.04666 0 5.01332V3.10667C0.613333 3.17334 1.57334 3.21334 2.89333 3.23334C3.76276 3.24651 4.64375 3.24233 5.5687 3.23794C6.04804 3.23567 6.5392 3.23334 7.04666 3.23334H11.28C12.6133 3.23334 13.62 3.17334 14.2933 3.10667V5.01332C13.4635 5.03126 12.6354 5.09805 11.8133 5.21334C11.2735 5.26747 10.7614 5.47836 10.34 5.82001C9.97875 6.20678 9.7459 6.69575 9.67333 7.21999C9.53784 8.01701 9.47757 8.82503 9.49333 9.63334V19.82L31.68 19.7133ZM68.5799 40.46H51.66V13.0867H68.5799V15.8333H54.8066V24.22H67.6066V26.8866H54.8066V37.7333H68.5799V40.46ZM92.3067 37.64L91.3 35.1067L80.7667 13.0867H75.8933V40.48H78.9667V18.48L78.9333 15.9467L79.94 18.48L90.5 40.48H95.3466V13.1067H92.2733V35.1067L92.3067 37.64ZM121.133 40.46H104.213V13.0867H121.133V15.8333H107.36V24.22H120.153V26.8866H107.36V37.7333H121.133V40.46ZM139.52 28.8133V28.78C143.247 27.7333 145.346 25.2 145.346 20.86C145.346 16.16 142.02 13.0867 135.833 13.0867H128.047V40.46H131.227V29.36H136.56L142.233 40.46H146.286L139.52 28.8133ZM136.167 15.76C139.433 15.76 142.1 17.2467 142.1 20.9333C142.1 25.4533 139.706 26.8266 135.013 26.8266H131.213V15.76H136.167ZM172.8 18.5467C171.832 17.5222 170.659 16.7127 169.358 16.1707C168.057 15.6286 166.656 15.366 165.247 15.4C159.353 15.4 154.833 19.52 154.833 26.6133C154.833 33.7067 158.3 38.18 165.353 38.18C167.707 38.18 169.44 37.42 170.2 36.48V29.2133H163.907V26.5H173.433V38.4C170.795 39.9206 167.812 40.7421 164.767 40.7866C156.047 40.7866 151.433 35.0733 151.433 26.68C151.433 18.0133 157.073 12.76 164.92 12.76C168.207 12.76 170.92 13.38 173.2 15.0733V18.4066C173.273 18.7266 173.053 18.8 172.8 18.5467ZM200 13.0867H196.6L189.373 25.7533H189.3L181.92 13.0867H178.52L187.633 28.6733V40.46H190.927V28.2733L200 13.0867Z" fill="#040000"/>
</svg>
