<svg version="1.1" id="Layer_1" xmlns="http://www.w3.org/2000/svg" xmlns:xlink="http://www.w3.org/1999/xlink" x="0px" y="0px"
	 width="50px" height="50px" viewBox="0 0 512 512" enable-background="new 0 0 512 512" xml:space="preserve">
<path fill="#000000" opacity="1.000000" stroke="none" 
	d="
M513.000000,402.000000 
	C513.000000,438.978119 513.000000,475.956207 513.000000,512.967163 
	C342.456207,512.967163 171.912399,512.967163 1.000000,512.967163 
	C1.000000,474.313232 1.000000,435.625275 1.260815,396.219788 
	C1.822858,394.916565 2.297786,394.359650 2.400337,393.740997 
	C6.923630,366.453033 18.708382,342.514069 36.955223,321.994873 
	C57.756073,298.603607 83.711342,283.417969 114.410698,276.772644 
	C118.349953,275.919952 119.662926,274.147095 119.652176,270.376831 
	C119.580009,245.057449 119.612770,219.737793 119.602348,194.418228 
	C119.601738,192.932617 119.919548,191.059982 118.397766,190.322098 
	C114.638008,188.499084 110.512466,189.034119 106.684341,189.810486 
	C103.362816,190.484100 104.492096,193.827988 104.397827,196.173157 
	C104.115814,203.188431 100.922165,206.363754 93.823463,206.387192 
	C83.329262,206.421844 72.834801,206.440628 62.340652,206.405991 
	C54.282185,206.379379 51.639488,203.707535 51.630810,195.587570 
	C51.607666,173.932693 51.611198,152.277786 51.626190,130.622879 
	C51.631687,122.684731 54.725883,119.655304 62.858849,119.629913 
	C72.686745,119.599236 82.514832,119.608757 92.342796,119.627045 
	C101.017670,119.643181 104.026192,122.552551 104.372543,131.172546 
	C104.438118,132.804657 103.909889,134.920486 105.634048,135.737946 
	C109.384987,137.516373 113.535713,136.994919 117.352608,136.214523 
	C120.613602,135.547775 119.584282,132.166504 119.588524,129.819351 
	C119.640587,101.001762 119.439873,72.182381 119.703125,43.367107 
	C119.827248,29.781103 125.056389,18.463909 135.919662,9.629428 
	C140.857574,5.613723 146.618469,3.815259 152.000000,1.000000 
	C221.354233,1.000000 290.708466,1.000000 360.843323,1.160183 
	C362.085052,1.512587 362.531403,1.759084 363.009430,1.889227 
	C383.249451,7.399613 394.750275,26.021517 394.471863,46.213737 
	C394.085907,74.205124 394.364044,102.205788 394.391357,130.202454 
	C394.393097,131.987442 393.675934,134.297623 395.340240,135.398712 
	C399.082428,137.874496 403.426056,136.780899 407.425385,136.227875 
	C410.171967,135.848099 409.543274,132.891647 409.626617,130.785355 
	C409.938293,122.905678 413.251709,119.645927 421.067047,119.631538 
	C431.565765,119.612206 442.065582,119.542358 452.562866,119.667137 
	C459.029694,119.743996 462.348755,123.179916 462.358215,129.569016 
	C462.391235,151.899658 462.396118,174.230423 462.354584,196.561035 
	C462.341949,203.373230 459.422638,206.324677 452.680145,206.369247 
	C442.015167,206.439774 431.349426,206.421768 420.684113,206.392944 
	C412.944702,206.372025 409.818390,203.294174 409.630188,195.642273 
	C409.474335,189.306732 409.474335,189.306732 400.896637,189.376328 
	C394.707092,189.426529 394.386383,189.714355 394.382660,195.918732 
	C394.367920,220.415833 394.491577,244.913940 394.276428,269.409149 
	C394.234619,274.167999 395.858154,276.222809 400.450043,277.179108 
	C421.954285,281.657501 441.138977,291.089752 458.408875,304.641144 
	C474.478729,317.250885 487.180481,332.589203 496.818115,350.550568 
	C505.474121,366.682526 510.541931,383.926849 513.000000,402.000000 
M367.648834,97.798378 
	C360.719696,89.525711 353.815948,81.231590 346.852448,72.987968 
	C342.243225,67.531425 341.933685,67.723198 337.145813,73.526932 
	C327.639526,85.050087 318.139587,96.590813 308.238281,107.771141 
	C302.174347,114.618393 296.205505,114.282463 290.243225,107.274574 
	C282.716003,98.427246 275.597351,89.230347 268.004608,80.441559 
	C264.380737,76.246819 261.331482,71.438126 256.487640,67.882210 
	C250.992691,74.463257 245.702988,80.810211 240.400238,87.146255 
	C234.328598,94.401062 228.461929,101.843445 222.096329,108.830925 
	C217.301605,114.094063 211.967972,113.859818 206.899796,109.027351 
	C202.916412,105.229225 199.609955,100.858292 196.138474,96.615540 
	C189.199585,88.135033 182.149582,79.744965 175.096436,71.358772 
	C173.210266,69.116127 171.267960,67.622940 168.649490,70.798080 
	C160.518311,80.657898 152.313675,90.458832 144.016434,100.179214 
	C140.251785,104.589554 138.161819,109.068932 138.195770,115.319496 
	C138.496140,170.646133 138.368378,225.975082 138.379776,281.303345 
	C138.380524,284.952881 138.614716,288.548462 139.192703,292.204224 
	C145.406509,331.505188 176.965240,358.617493 216.761169,358.619110 
	C243.592056,358.620178 270.423004,358.591492 297.253784,358.642426 
	C304.275665,358.655762 311.128601,357.740723 317.917236,355.955872 
	C352.157898,346.953491 375.621246,316.603973 375.621613,281.211609 
	C375.622162,226.716599 375.426239,172.220093 375.836182,117.728172 
	C375.896851,109.665253 373.666870,103.610420 367.648834,97.798378 
M301.921265,445.263977 
	C292.851227,461.228271 283.781189,477.192566 274.717987,493.144836 
	C276.730896,495.090851 278.655884,494.596802 280.399200,494.598358 
	C313.049530,494.627747 345.700256,494.541870 378.349823,494.702515 
	C383.162231,494.726196 384.764923,493.171143 384.711761,488.348511 
	C384.502472,469.360321 384.631622,450.368408 384.632477,431.377899 
	C384.633057,418.449158 384.633118,418.653107 397.588562,418.523560 
	C402.289673,418.476562 403.492340,420.121674 403.454285,424.567993 
	C403.273224,445.722534 403.367004,466.879486 403.383118,488.035583 
	C403.387939,494.358368 403.628754,494.611328 409.803619,494.614990 
	C435.790649,494.630341 461.777679,494.628204 487.764709,494.617584 
	C494.237579,494.614929 494.611053,494.258820 494.617157,487.878418 
	C494.637848,466.222565 494.277283,444.559357 494.730560,422.912933 
	C495.196930,400.641754 490.558716,379.780945 480.015106,360.164307 
	C462.199432,327.017944 434.894562,305.980896 398.798248,295.946442 
	C394.681305,294.801910 392.927582,296.683807 392.592773,300.072906 
	C392.226440,303.780640 391.095734,307.260193 389.993103,310.689575 
	C384.276428,328.469574 374.638092,343.618591 359.931396,355.500488 
	C355.458801,359.114014 349.876740,361.583069 346.780975,366.755127 
	C343.539856,372.169952 340.548859,377.733948 337.414978,383.213562 
	C325.706970,403.685120 313.985229,424.148834 301.921265,445.263977 
M19.508354,406.939087 
	C19.464561,434.089172 19.516083,461.240021 19.288708,488.388580 
	C19.248001,493.248932 20.870705,494.742828 25.660423,494.709625 
	C51.811615,494.528351 77.964714,494.630951 104.117134,494.613251 
	C110.325768,494.609039 110.609818,494.320190 110.616692,488.077637 
	C110.637596,469.087982 110.629822,450.098297 110.628838,431.108643 
	C110.628181,418.479126 110.628067,418.701233 123.360870,418.515869 
	C128.309158,418.443817 129.512344,420.191925 129.466293,424.858246 
	C129.257492,446.011322 129.491882,467.168762 129.290054,488.321991 
	C129.244431,493.103607 130.720459,494.734589 135.590591,494.709503 
	C168.405197,494.540710 201.221100,494.629669 234.036530,494.597351 
	C235.618866,494.595795 237.409454,495.140778 239.053009,493.143616 
	C237.975510,491.005096 236.906845,488.623810 235.619247,486.367432 
	C214.401901,449.186920 193.113678,412.046692 171.958130,374.831055 
	C168.141602,368.117218 163.811676,362.230408 157.127060,357.870483 
	C149.878357,353.142609 143.948608,346.752563 138.780518,339.720245 
	C130.002289,327.775604 123.922890,314.689270 121.344666,300.020233 
	C120.763008,296.710846 119.333191,294.757324 115.148300,295.918152 
	C79.198196,305.890045 52.081821,326.935364 34.189007,359.775635 
	C26.299288,374.256317 21.639072,389.713806 19.508354,406.939087 
M279.500244,19.405886 
	C240.683502,19.404448 201.866776,19.397293 163.050034,19.405264 
	C152.248718,19.407482 143.763046,25.761990 139.975937,35.937664 
	C137.605682,42.306339 138.587753,48.768806 138.412415,55.203949 
	C138.234268,61.742958 138.373062,68.290604 138.373062,74.834465 
	C138.978210,75.163956 139.583359,75.493454 140.188492,75.822952 
	C141.110779,74.433449 141.916534,72.947456 142.974289,71.670135 
	C149.734665,63.506390 156.491104,55.337925 163.367813,47.272438 
	C168.389511,41.382622 175.074432,41.160213 180.060287,46.939728 
	C187.312363,55.346222 194.259979,64.014992 201.361130,72.552193 
	C205.455887,77.475037 209.597305,82.359047 213.877029,87.450043 
	C216.704742,85.246902 218.684586,83.100075 220.584381,80.798828 
	C229.756119,69.688805 238.802429,58.463951 248.312943,47.648907 
	C254.564590,40.539715 260.695831,41.195160 266.653595,48.461712 
	C276.746826,60.772186 287.056061,72.905930 297.112976,85.245613 
	C299.361511,88.004562 300.660309,87.286674 302.508911,85.025513 
	C312.881744,72.337769 323.274506,59.665485 333.770782,47.079945 
	C338.368073,41.567589 344.178711,41.368694 349.401398,46.198914 
	C355.401276,51.747944 359.839691,58.656799 365.425964,64.552818 
	C368.642303,67.947495 370.536102,72.651184 375.121582,74.925377 
	C375.346008,74.310249 375.552063,74.007736 375.553131,73.704514 
	C375.587585,63.875912 375.661591,54.046902 375.605774,44.218658 
	C375.525879,30.150963 364.618866,19.416416 350.470306,19.409044 
	C327.146973,19.396893 303.823608,19.405931 279.500244,19.405886 
M283.726135,438.286743 
	C295.442749,417.667755 307.159363,397.048767 318.816589,376.534332 
	C277.074097,377.730133 236.356766,378.169128 194.881760,376.202148 
	C215.467209,412.222839 235.910065,447.994049 256.931885,484.778320 
	C266.202026,468.746490 274.813812,453.853210 283.726135,438.286743 
M438.222961,187.626862 
	C442.447021,188.072693 443.727814,185.977585 443.672241,181.993500 
	C443.516602,170.829910 443.623413,159.662704 443.619904,148.496933 
	C443.616516,137.764969 443.373993,137.623703 432.697540,138.373291 
	C429.482849,138.598984 428.336945,140.025513 428.350952,143.095886 
	C428.411682,156.427872 428.408691,169.760422 428.351013,183.092438 
	C428.337372,186.241226 429.658142,187.747101 432.835693,187.621933 
	C434.333008,187.562973 435.834991,187.622437 438.222961,187.626862 
M70.361862,155.504013 
	C70.361473,163.815399 70.350937,172.126785 70.363785,180.438156 
	C70.374870,187.606674 70.386650,187.606979 77.650314,187.627869 
	C78.481438,187.630249 79.319168,187.558044 80.142609,187.637177 
	C84.279907,188.034760 85.725716,186.102509 85.671715,182.067017 
	C85.520485,170.765594 85.624855,159.460815 85.623009,148.157349 
	C85.621346,137.963409 85.135101,137.590286 74.839592,138.384308 
	C71.754158,138.622253 70.300095,139.921600 70.354507,143.037659 
	C70.421265,146.859650 70.365036,150.683807 70.361862,155.504013 
M394.377594,165.225983 
	C393.940613,169.362747 395.910522,170.686111 399.908783,170.688126 
	C409.705231,170.693054 411.600739,168.427322 409.575165,158.519318 
	C409.186066,156.615952 408.217041,155.524719 406.296692,155.475220 
	C403.491119,155.402924 400.679474,155.359650 397.876312,155.463684 
	C395.463684,155.553223 394.379883,157.019928 394.396332,159.382904 
	C394.407837,161.034622 394.384399,162.686584 394.377594,165.225983 
M108.042778,170.589401 
	C110.541382,170.592880 113.040009,170.591873 115.538589,170.601456 
	C117.131287,170.607559 118.501747,170.219025 119.276482,168.649780 
	C122.630127,161.857086 118.766525,155.295563 111.380005,155.414780 
	C108.882599,155.455078 105.798477,154.416916 104.560875,157.941849 
	C103.209137,161.791870 104.683601,168.643250 108.042778,170.589401 
z"/>
<path fill="#000000" opacity="1.000000" stroke="none" 
	d="
M179.603363,294.488708 
	C179.616501,284.217804 179.581085,274.387238 179.633255,264.557129 
	C179.682846,255.212173 186.925858,247.848648 196.328079,247.649246 
	C202.157028,247.525620 207.990829,247.604706 213.822296,247.631256 
	C224.794998,247.681198 232.210068,254.995804 232.339523,266.045715 
	C232.444901,275.041840 232.508423,284.042969 232.316727,293.036041 
	C232.229828,297.113892 233.690689,298.717560 237.824554,298.669159 
	C250.652252,298.519043 263.484436,298.501862 276.311432,298.681274 
	C280.612122,298.741394 281.754913,296.860474 281.676178,292.933167 
	C281.502533,284.272614 281.597412,275.606018 281.632751,266.942108 
	C281.682129,254.830429 288.814087,247.645401 300.760925,247.625702 
	C306.259216,247.616638 311.759247,247.543106 317.255554,247.649689 
	C327.251038,247.843521 334.329773,255.129089 334.359467,265.165527 
	C334.387085,274.496002 334.506500,283.829285 334.317200,293.155884 
	C334.232849,297.310089 335.860260,298.672852 339.921753,298.692047 
	C351.421661,298.746307 351.421051,298.878693 351.373871,310.402924 
	C351.345428,317.357239 351.345428,317.378448 344.636627,317.378357 
	C286.320831,317.377502 228.005051,317.370605 169.689255,317.358887 
	C162.653152,317.357483 162.653168,317.339264 162.628220,310.178406 
	C162.588608,298.809204 162.588486,298.802460 173.802643,298.623718 
	C176.509399,298.580566 179.399704,298.884827 179.603363,294.488708 
M213.615952,294.049500 
	C213.618317,287.557281 213.627579,281.065094 213.621307,274.572876 
	C213.613373,266.354126 213.607910,266.354187 205.238831,266.413055 
	C204.572983,266.417755 203.905136,266.456177 203.241608,266.418915 
	C199.559494,266.212341 198.237503,268.036041 198.325333,271.591492 
	C198.473236,277.580627 198.356110,283.576111 198.362030,289.568939 
	C198.371109,298.766632 198.375122,298.754852 207.819580,298.627655 
	C210.541000,298.591003 213.400604,298.857513 213.615952,294.049500 
M315.620483,274.664307 
	C315.562866,266.351074 315.562866,266.350952 307.341888,266.403442 
	C306.510590,266.408752 305.678741,266.439240 304.848083,266.419250 
	C301.716858,266.343933 300.320496,267.860321 300.357330,270.988312 
	C300.425873,276.806854 300.375305,282.626801 300.375305,288.446167 
	C300.375275,299.245605 300.480072,299.264191 311.179138,298.659912 
	C314.343048,298.481262 315.672485,297.196136 315.635803,294.075989 
	C315.563477,287.924957 315.619019,281.772461 315.620483,274.664307 
z"/>
<path fill="rgb(250, 128, 20)" opacity="1.000000" stroke="none" 
	d="
M315.076874,223.388458 
	C291.996338,223.506317 271.524414,202.293152 273.649109,178.757523 
	C274.098145,173.783157 277.856110,170.738098 284.325104,170.668472 
	C295.816925,170.544800 307.310974,170.622971 318.804077,170.620529 
	C328.464966,170.618500 338.125946,170.599075 347.786743,170.629150 
	C357.926575,170.660736 361.036072,175.047440 359.766022,185.131470 
	C358.345093,196.413345 353.857635,205.656860 345.228455,213.038025 
	C336.648773,220.376862 326.944366,224.239487 315.076874,223.388458 
M303.066101,200.475037 
	C308.072418,203.233017 313.229401,205.117859 319.153320,204.665054 
	C327.429596,204.032410 336.718018,196.954788 337.596710,189.885696 
	C323.478912,189.885696 309.410187,189.885696 294.949066,189.885696 
	C296.205048,194.744232 299.567230,197.245590 303.066101,200.475037 
z"/>
<path fill="#000000" opacity="1.000000" stroke="none" 
	d="
M207.000214,170.620148 
	C214.659805,170.624466 221.820114,170.566391 228.978806,170.649200 
	C237.445541,170.747131 240.103546,173.734177 240.421692,182.048950 
	C241.201553,202.430603 221.498795,223.070969 198.648697,223.692871 
	C178.344040,224.245468 159.460297,209.324585 155.375610,191.626328 
	C154.634216,188.414001 153.974777,185.144745 153.715271,181.867096 
	C153.162216,174.881836 157.152679,170.724091 164.541916,170.664413 
	C178.527206,170.551422 192.514023,170.624405 207.000214,170.620148 
M217.391647,194.057205 
	C217.800766,192.736420 219.531769,191.745804 218.402435,190.023453 
	C204.328140,190.023453 190.270233,190.023453 175.895981,190.023453 
	C176.745300,193.942123 178.579132,196.455048 181.070923,198.421158 
	C193.284698,208.058136 206.380005,206.638885 217.391647,194.057205 
z"/>
<path fill="#000000" opacity="1.000000" stroke="none" 
	d="
M173.337341,147.604706 
	C171.157303,142.469162 167.951035,142.257446 163.545990,144.227921 
	C157.421768,146.967422 157.324219,146.748306 154.769974,140.544159 
	C154.075867,138.858231 153.389084,137.169174 152.680878,135.489166 
	C150.109558,129.389389 150.007568,129.139618 155.947159,126.794189 
	C160.115448,125.148201 158.794739,122.774727 157.146683,120.654282 
	C154.533401,117.291977 155.111237,115.049667 158.762421,113.240623 
	C159.652817,112.799454 160.485718,112.241859 161.343124,111.734497 
	C170.163010,106.515388 170.224823,106.471519 175.969971,114.615585 
	C177.625732,116.962715 179.449677,117.378830 181.924255,116.318581 
	C183.905640,115.469658 185.912827,114.677879 187.927826,113.911331 
	C189.926239,113.151077 191.948746,112.454071 194.320419,111.599724 
	C197.545334,116.850533 199.381729,122.427124 201.225662,128.141953 
	C198.694763,130.989212 195.157394,131.688004 191.988632,132.863342 
	C188.855194,134.025558 188.664612,135.630188 190.193619,138.124680 
	C191.839951,140.810547 193.478226,143.501892 195.079941,146.214493 
	C196.655518,148.882828 196.665588,151.074402 193.566971,152.862091 
	C178.104446,161.782959 182.663635,162.504395 173.337341,147.604706 
z"/>
</svg>